<svg version="1.0" xmlns="http://www.w3.org/2000/svg"
 width="300.000000pt" height="293.000000pt" viewBox="0 0 300.000000 293.000000"
 preserveAspectRatio="xMidYMid meet">
<g transform="translate(0.000000,293.000000) scale(0.050000,-0.050000)"
fill="#6fa8dc" stroke="none">
<path d="M2660 5700 c-645 -90 -1190 -357 -1643 -806 -279 -277 -293 -175 114
-846 193 -318 483 -810 645 -1093 162 -283 299 -514 304 -514 11 0 570 987
591 1044 34 90 39 -21 33 -795 l-7 -830 132 0 131 0 0 1040 c0 572 2 1047 5
1055 3 8 -63 18 -147 21 l-152 6 -227 -396 c-124 -218 -254 -448 -288 -511
-77 -145 -55 -161 -241 169 -88 156 -306 523 -484 815 l-324 531 114 116
c1281 1310 3559 780 4155 -966 216 -634 159 -1443 -139 -1978 -25 -45 86 -320
130 -322 21 0 254 506 294 640 362 1199 -96 2489 -1125 3169 -540 357 -1274
534 -1871 451z"/>
<path d="M493 4171 c-570 -1156 -278 -2589 689 -3383 1200 -984 2836 -871
3892 270 l103 112 -35 61 c-19 33 -195 341 -391 685 l-356 624 -149 0 c-82 0
-146 -8 -143 -17 4 -9 173 -307 375 -661 l368 -644 -117 -119 c-433 -438
-1083 -699 -1739 -699 -1835 0 -3047 1892 -2289 3575 l56 124 -73 130 c-92
162 -80 166 -191 -58z"/>
<path d="M3480 3846 l0 -136 405 0 c498 0 584 -35 634 -257 68 -301 -87 -401
-629 -408 l-400 -5 -5 -590 -6 -590 136 0 135 0 0 460 0 460 290 6 c519 10
758 212 736 624 -22 423 -228 557 -871 566 l-425 7 0 -137z"/>
<path d="M1181 2675 l-1 -815 135 0 135 0 -5 592 -5 592 -109 193 c-61 106
-118 207 -129 223 -13 20 -20 -248 -21 -785z"/>
</g>
</svg>
